<?xml version="1.0" encoding="iso-8859-1"?>
<!-- Generator: Adobe Illustrator 19.0.0, SVG Export Plug-In . SVG Version: 6.00 Build 0)  -->
<svg version="1.1" id="Capa_1" xmlns="http://www.w3.org/2000/svg" xmlns:xlink="http://www.w3.org/1999/xlink" x="0px" y="0px"
	 viewBox="0 0 512 512" style="enable-background:new 0 0 512 512;" xml:space="preserve">
<g>
	<g>
		<g>
			<path d="M418.4,0H93.6C41.6,0,0,41.6,0,93.6V304c0,4.8,3.2,8,8,8s8-3.2,8-8v-40h24c4.8,0,8-3.2,8-8s-3.2-8-8-8H16V93.6
				C16,50.4,50.4,16,93.6,16H248v24c0,4.8,3.2,8,8,8s8-3.2,8-8V16h154.4c42.4,0,77.6,34.4,77.6,77.6V248h-24c-4.8,0-8,3.2-8,8
				s3.2,8,8,8h24v154.4c0,42.4-34.4,77.6-77.6,77.6H264v-24c0-4.8-3.2-8-8-8s-8,3.2-8,8v24h-40c-4.8,0-8,3.2-8,8s3.2,8,8,8h210.4
				c52,0,93.6-41.6,93.6-93.6V93.6C512,41.6,470.4,0,418.4,0z"/>
			<path d="M256,104c-4.8,0-8,3.2-8,8v145.6c0,2.4,1.6,4.8,3.2,6.4l75.2,55.2l2.4,1.6l84,61.6c1.6,0.8,3.2,1.6,4.8,1.6
				c2.4,0,4.8-0.8,6.4-3.2c2.4-3.2,1.6-8.8-1.6-11.2L339.2,308l0.8-0.8l-12-7.2l-64-47.2v-76c0.8,0,1.6,0,2.4,0l1.6-16
				c-1.6,0-2.4,0-4,0V112C264,107.2,260.8,104,256,104z"/>
			<path d="M280.8,333.6l4.8,15.2c5.6-1.6,11.2-4,16-6.4l-7.2-14.4C289.6,330.4,285.6,332.8,280.8,333.6z"/>
			<path d="M293.6,186.4c4,2.4,8.8,4.8,12,8l9.6-12.8c-4.8-3.2-9.6-6.4-14.4-9.6L293.6,186.4z"/>
			<path d="M323.2,327.2L312,316c-3.2,3.2-7.2,6.4-11.2,8.8l8.8,13.6C314.4,335.2,318.4,331.2,323.2,327.2z"/>
			<path d="M322.4,187.2L312,198.4c3.2,3.2,7.2,7.2,9.6,11.2l12.8-9.6C331.2,195.2,327.2,191.2,322.4,187.2z"/>
			<path d="M224.8,167.2l5.6,15.2c4.8-1.6,9.6-3.2,14.4-4l-2.4-16C236,163.2,230.4,164.8,224.8,167.2z"/>
			<path d="M184,289.6c-1.6-4.8-3.2-8.8-4.8-13.6l-15.2,4c1.6,5.6,3.2,11.2,5.6,16.8L184,289.6z"/>
			<path d="M233.6,350.4c5.6,1.6,11.2,2.4,17.6,2.4l0.8-16c-4.8,0-9.6-0.8-14.4-2.4L233.6,350.4z"/>
			<path d="M260,353.6c5.6,0,12-0.8,17.6-1.6l-3.2-16c-4.8,0.8-9.6,1.6-14.4,1.6V353.6z"/>
			<path d="M162.4,244.8l16,2.4c0.8-4.8,1.6-9.6,3.2-14.4l-15.2-4.8C164,232.8,163.2,238.4,162.4,244.8z"/>
			<path d="M329.6,292.8L344,300c2.4-5.6,4.8-10.4,6.4-16l-15.2-4C332.8,284,331.2,288,329.6,292.8z"/>
			<path d="M352,257.6h-15.2c0,4.8,0,9.6-0.8,14.4l15.2,3.2C352,268.8,352,263.2,352,257.6z"/>
			<path d="M276.8,163.2l-3.2,16c4.8,0.8,9.6,2.4,13.6,4l5.6-15.2C288,166.4,282.4,164,276.8,163.2z"/>
			<path d="M211.2,323.2c-4-2.4-8-5.6-11.2-9.6l-11.2,11.2c4,4,8.8,8,13.6,11.2L211.2,323.2z"/>
			<path d="M195.2,308c-3.2-4-5.6-8-8-12l-14.4,8c2.4,4.8,6.4,9.6,9.6,14.4L195.2,308z"/>
			<path d="M325.6,215.2c2.4,4,4.8,8.8,6.4,12.8l15.2-5.6c-2.4-5.6-4.8-10.4-8-16L325.6,215.2z"/>
			<path d="M349.6,231.2l-15.2,4c1.6,4.8,2.4,9.6,2.4,14.4l16-1.6C352.8,242.4,351.2,236.8,349.6,231.2z"/>
			<path d="M182.4,196.8l12.8,10.4c3.2-4,6.4-7.2,10.4-10.4L195.2,184C190.4,188,186.4,192,182.4,196.8z"/>
			<path d="M201.6,179.2l9.6,12.8c4-3.2,8-5.6,12.8-7.2l-6.4-14.4C211.2,172.8,206.4,175.2,201.6,179.2z"/>
			<path d="M168.8,219.2l14.4,6.4c1.6-4.8,4-8.8,7.2-12.8l-13.6-8.8C174.4,208.8,171.2,213.6,168.8,219.2z"/>
			<path d="M209.6,340.8c4.8,3.2,10.4,5.6,16,7.2l5.6-15.2c-4.8-1.6-8.8-4-13.6-6.4L209.6,340.8z"/>
			<path d="M161.6,257.6c0,4.8,0,8.8,0.8,13.6l16-2.4c-0.8-4-0.8-7.2-0.8-11.2c0-0.8,0-2.4,0-3.2l-16-0.8
				C161.6,254.4,161.6,256,161.6,257.6z"/>
			<path d="M200,448c0,4.8,3.2,8,8,8h185.6c32.8,0,62.4-30.4,62.4-62.4v-272c0-32.8-30.4-57.6-62.4-57.6h-272
				C88.8,64,64,88.8,64,121.6V304c0,4.8,3.2,8,8,8s8-3.2,8-8V121.6c0-24,17.6-41.6,41.6-41.6h272c24,0,46.4,17.6,46.4,41.6v272
				c0,24-23.2,46.4-46.4,46.4H208C203.2,440,200,443.2,200,448z"/>
			<path d="M122.4,378.4L64,436.8l-10.4-10.4c-3.2-3.2-8-3.2-11.2,0c-3.2,3.2-3.2,8,0,11.2l16,16c1.6,1.6,3.2,2.4,5.6,2.4
				s4-0.8,5.6-2.4l64-64c3.2-3.2,3.2-8,0-11.2C130.4,375.2,125.6,375.2,122.4,378.4z"/>
			<path d="M202.4,370.4c-4-1.6-8.8,0-10.4,4l-5.6,12c-4.8-13.6-12.8-26.4-23.2-36.8c-37.6-37.6-98.4-37.6-136,0
				C9.6,366.4,0,390.4,0,416c0,25.6,9.6,49.6,28,68c19.2,18.4,43.2,28,68,28s49.6-9.6,68-28c3.2-3.2,3.2-8,0-11.2s-8-3.2-11.2,0
				c-31.2,31.2-82.4,31.2-113.6,0C24,457.6,16,437.6,16,416c0-21.6,8-41.6,23.2-56.8c31.2-31.2,82.4-31.2,113.6,0
				c9.6,9.6,16.8,21.6,20.8,35.2l-17.6-9.6c-4-2.4-8.8-0.8-11.2,3.2c-2.4,4-0.8,8.8,3.2,11.2l32,16.8c0,0,0.8,0,0.8,0.8
				c0.8,0,1.6,0.8,2.4,0.8c0,0,0,0,0.8,0s0.8,0,1.6,0c0,0,0,0,0.8,0s0.8-0.8,1.6-0.8c0.8,0,0.8-0.8,0.8-0.8c0.8-0.8,0.8-0.8,0.8-1.6
				l0.8-0.8l16-32.8C208,376.8,206.4,372,202.4,370.4z"/>
		</g>
	</g>
</g>
<g>
</g>
<g>
</g>
<g>
</g>
<g>
</g>
<g>
</g>
<g>
</g>
<g>
</g>
<g>
</g>
<g>
</g>
<g>
</g>
<g>
</g>
<g>
</g>
<g>
</g>
<g>
</g>
<g>
</g>
</svg>
